<mxfile host="app.diagrams.net" modified="2022-03-20T16:18:17.380Z" agent="5.0 (Macintosh; Intel Mac OS X 10_15_7) AppleWebKit/537.36 (KHTML, like Gecko) Chrome/99.0.4844.74 Safari/537.36" etag="FZNCr8jygxpVo8VIFm4C" version="17.1.3" type="github">
  <diagram id="vbLzMYFggKSCNAN8Y7Uk" name="Page-1">
    <mxGraphModel dx="1977" dy="1285" grid="1" gridSize="10" guides="1" tooltips="1" connect="1" arrows="1" fold="1" page="1" pageScale="1" pageWidth="850" pageHeight="1100" math="0" shadow="0">
      <root>
        <mxCell id="0" />
        <mxCell id="1" parent="0" />
        <object label="&lt;font color=&quot;#ffffff&quot;&gt;&amp;lt;%type%&amp;gt;&lt;br&gt;%name%&lt;br&gt;%createAt%&lt;br&gt;&lt;/font&gt;" placeholders="1" type="Contract" name="TW tenement user agreement" createAt="create_at" id="XjBraubrFi25nvNVcW7s-2">
          <mxCell style="rounded=1;whiteSpace=wrap;html=1;fillColor=#FF66B3;noLabel=0;comic=0;recursiveResize=1;" parent="1" vertex="1">
            <mxGeometry x="60" y="310" width="170" height="100" as="geometry" />
          </mxCell>
        </object>
        <object label="&lt;font color=&quot;#ffffff&quot;&gt;&amp;lt;%type%&amp;gt;&lt;br&gt;%name%&lt;br&gt;%createAt%&lt;br&gt;%expireAt%&lt;br&gt;&lt;/font&gt;" placeholders="1" type="Fulfilment" name="Account Creation Request" createAt="create_at" expireAt="expire_at" id="JDbpLK1EYtTzxkzlDI9f-1">
          <mxCell style="rounded=1;whiteSpace=wrap;html=1;fillColor=#FF66B3;noLabel=0;comic=0;recursiveResize=1;" vertex="1" parent="1">
            <mxGeometry x="307.67" y="80" width="170" height="100" as="geometry" />
          </mxCell>
        </object>
        <object label="&lt;font color=&quot;#ffffff&quot;&gt;&amp;lt;%type%&amp;gt;&lt;br&gt;%name%&lt;br&gt;%createAt%&lt;br&gt;&lt;/font&gt;" placeholders="1" type="Fulfilment" name="Account Creation Confirmation" createAt="create_at" id="JDbpLK1EYtTzxkzlDI9f-2">
          <mxCell style="rounded=1;whiteSpace=wrap;html=1;fillColor=#FF66B3;noLabel=0;comic=0;recursiveResize=1;" vertex="1" parent="1">
            <mxGeometry x="537.67" y="80" width="170" height="100" as="geometry" />
          </mxCell>
        </object>
        <mxCell id="JDbpLK1EYtTzxkzlDI9f-3" style="edgeStyle=orthogonalEdgeStyle;rounded=0;orthogonalLoop=1;jettySize=auto;html=1;exitX=0.5;exitY=0;exitDx=0;exitDy=0;entryX=0;entryY=0.5;entryDx=0;entryDy=0;endArrow=none;endFill=0;" edge="1" parent="1" source="XjBraubrFi25nvNVcW7s-2" target="JDbpLK1EYtTzxkzlDI9f-1">
          <mxGeometry relative="1" as="geometry">
            <mxPoint x="180" y="260" as="sourcePoint" />
            <mxPoint x="280" y="260" as="targetPoint" />
          </mxGeometry>
        </mxCell>
        <mxCell id="JDbpLK1EYtTzxkzlDI9f-4" value="1" style="edgeLabel;html=1;align=center;verticalAlign=middle;resizable=0;points=[];" vertex="1" connectable="0" parent="JDbpLK1EYtTzxkzlDI9f-3">
          <mxGeometry x="-0.82" relative="1" as="geometry">
            <mxPoint y="-10" as="offset" />
          </mxGeometry>
        </mxCell>
        <mxCell id="JDbpLK1EYtTzxkzlDI9f-5" value="1" style="edgeLabel;html=1;align=center;verticalAlign=middle;resizable=0;points=[];" vertex="1" connectable="0" parent="JDbpLK1EYtTzxkzlDI9f-3">
          <mxGeometry x="0.72" y="-1" relative="1" as="geometry">
            <mxPoint y="-11" as="offset" />
          </mxGeometry>
        </mxCell>
        <mxCell id="JDbpLK1EYtTzxkzlDI9f-6" style="edgeStyle=orthogonalEdgeStyle;rounded=0;orthogonalLoop=1;jettySize=auto;html=1;exitX=1;exitY=0.5;exitDx=0;exitDy=0;endArrow=none;endFill=0;entryX=0;entryY=0.5;entryDx=0;entryDy=0;" edge="1" parent="1" source="JDbpLK1EYtTzxkzlDI9f-1" target="JDbpLK1EYtTzxkzlDI9f-2">
          <mxGeometry relative="1" as="geometry">
            <mxPoint x="477.67" y="130" as="sourcePoint" />
            <mxPoint x="517.67" y="130" as="targetPoint" />
          </mxGeometry>
        </mxCell>
        <mxCell id="JDbpLK1EYtTzxkzlDI9f-7" value="1" style="edgeLabel;html=1;align=center;verticalAlign=middle;resizable=0;points=[];" vertex="1" connectable="0" parent="JDbpLK1EYtTzxkzlDI9f-6">
          <mxGeometry x="-0.82" relative="1" as="geometry">
            <mxPoint y="-10" as="offset" />
          </mxGeometry>
        </mxCell>
        <mxCell id="JDbpLK1EYtTzxkzlDI9f-8" value="1" style="edgeLabel;html=1;align=center;verticalAlign=middle;resizable=0;points=[];" vertex="1" connectable="0" parent="JDbpLK1EYtTzxkzlDI9f-6">
          <mxGeometry x="0.72" y="-1" relative="1" as="geometry">
            <mxPoint y="-11" as="offset" />
          </mxGeometry>
        </mxCell>
        <object label="&lt;font color=&quot;#ffffff&quot;&gt;&amp;lt;%type%&amp;gt;&lt;br&gt;%name%&lt;br&gt;%createAt%&lt;br&gt;%expireAt%&lt;br&gt;&lt;/font&gt;" placeholders="1" type="Fulfilment" name="Account Deletion Request" createAt="create_at" expireAt="expire_at" id="JDbpLK1EYtTzxkzlDI9f-9">
          <mxCell style="rounded=1;whiteSpace=wrap;html=1;fillColor=#FF66B3;noLabel=0;comic=0;recursiveResize=1;" vertex="1" parent="1">
            <mxGeometry x="305" y="200" width="170" height="100" as="geometry" />
          </mxCell>
        </object>
        <object label="&lt;font color=&quot;#ffffff&quot;&gt;&amp;lt;%type%&amp;gt;&lt;br&gt;%name%&lt;br&gt;%createAt%&lt;br&gt;&lt;/font&gt;" placeholders="1" type="Fulfilment" name="Account Deletion Confirmation" createAt="create_at" id="JDbpLK1EYtTzxkzlDI9f-10">
          <mxCell style="rounded=1;whiteSpace=wrap;html=1;fillColor=#FF66B3;noLabel=0;comic=0;recursiveResize=1;" vertex="1" parent="1">
            <mxGeometry x="550" y="200" width="170" height="100" as="geometry" />
          </mxCell>
        </object>
        <mxCell id="JDbpLK1EYtTzxkzlDI9f-11" style="edgeStyle=orthogonalEdgeStyle;rounded=0;orthogonalLoop=1;jettySize=auto;html=1;exitX=1;exitY=0.5;exitDx=0;exitDy=0;endArrow=none;endFill=0;entryX=0;entryY=0.5;entryDx=0;entryDy=0;" edge="1" parent="1" source="JDbpLK1EYtTzxkzlDI9f-9" target="JDbpLK1EYtTzxkzlDI9f-10">
          <mxGeometry relative="1" as="geometry">
            <mxPoint x="530" y="260" as="sourcePoint" />
            <mxPoint x="570" y="260" as="targetPoint" />
          </mxGeometry>
        </mxCell>
        <mxCell id="JDbpLK1EYtTzxkzlDI9f-12" value="1" style="edgeLabel;html=1;align=center;verticalAlign=middle;resizable=0;points=[];" vertex="1" connectable="0" parent="JDbpLK1EYtTzxkzlDI9f-11">
          <mxGeometry x="-0.82" relative="1" as="geometry">
            <mxPoint y="-10" as="offset" />
          </mxGeometry>
        </mxCell>
        <mxCell id="JDbpLK1EYtTzxkzlDI9f-13" value="1" style="edgeLabel;html=1;align=center;verticalAlign=middle;resizable=0;points=[];" vertex="1" connectable="0" parent="JDbpLK1EYtTzxkzlDI9f-11">
          <mxGeometry x="0.72" y="-1" relative="1" as="geometry">
            <mxPoint y="-11" as="offset" />
          </mxGeometry>
        </mxCell>
        <mxCell id="JDbpLK1EYtTzxkzlDI9f-14" style="edgeStyle=orthogonalEdgeStyle;rounded=0;orthogonalLoop=1;jettySize=auto;html=1;exitX=0.75;exitY=0;exitDx=0;exitDy=0;entryX=0;entryY=0.5;entryDx=0;entryDy=0;endArrow=none;endFill=0;" edge="1" parent="1" source="XjBraubrFi25nvNVcW7s-2" target="JDbpLK1EYtTzxkzlDI9f-9">
          <mxGeometry relative="1" as="geometry">
            <mxPoint x="175" y="290" as="sourcePoint" />
            <mxPoint x="320" y="230" as="targetPoint" />
          </mxGeometry>
        </mxCell>
        <mxCell id="JDbpLK1EYtTzxkzlDI9f-15" value="1" style="edgeLabel;html=1;align=center;verticalAlign=middle;resizable=0;points=[];" vertex="1" connectable="0" parent="JDbpLK1EYtTzxkzlDI9f-14">
          <mxGeometry x="-0.82" relative="1" as="geometry">
            <mxPoint y="-10" as="offset" />
          </mxGeometry>
        </mxCell>
        <mxCell id="JDbpLK1EYtTzxkzlDI9f-16" value="1" style="edgeLabel;html=1;align=center;verticalAlign=middle;resizable=0;points=[];" vertex="1" connectable="0" parent="JDbpLK1EYtTzxkzlDI9f-14">
          <mxGeometry x="0.72" y="-1" relative="1" as="geometry">
            <mxPoint y="-11" as="offset" />
          </mxGeometry>
        </mxCell>
        <object label="&lt;font color=&quot;#ffffff&quot;&gt;&amp;lt;%type%&amp;gt;&lt;br&gt;%name%&lt;br&gt;%createAt%&lt;br&gt;%expireAt%&lt;br&gt;&lt;/font&gt;" placeholders="1" type="Fulfilment" name="Ban Account Request" createAt="create_at" expireAt="expire_at" id="JDbpLK1EYtTzxkzlDI9f-17">
          <mxCell style="rounded=1;whiteSpace=wrap;html=1;fillColor=#FF66B3;noLabel=0;comic=0;recursiveResize=1;" vertex="1" parent="1">
            <mxGeometry x="305" y="310" width="170" height="100" as="geometry" />
          </mxCell>
        </object>
        <object label="&lt;font color=&quot;#ffffff&quot;&gt;&amp;lt;%type%&amp;gt;&lt;br&gt;%name%&lt;br&gt;%createAt%&lt;br&gt;&lt;/font&gt;" placeholders="1" type="Fulfilment" name="Ban Account Confirmation" createAt="create_at" id="JDbpLK1EYtTzxkzlDI9f-18">
          <mxCell style="rounded=1;whiteSpace=wrap;html=1;fillColor=#FF66B3;noLabel=0;comic=0;recursiveResize=1;" vertex="1" parent="1">
            <mxGeometry x="550" y="310" width="170" height="100" as="geometry" />
          </mxCell>
        </object>
        <mxCell id="JDbpLK1EYtTzxkzlDI9f-19" style="edgeStyle=orthogonalEdgeStyle;rounded=0;orthogonalLoop=1;jettySize=auto;html=1;exitX=1;exitY=0.5;exitDx=0;exitDy=0;endArrow=none;endFill=0;entryX=0;entryY=0.5;entryDx=0;entryDy=0;" edge="1" parent="1" source="JDbpLK1EYtTzxkzlDI9f-17" target="JDbpLK1EYtTzxkzlDI9f-18">
          <mxGeometry relative="1" as="geometry">
            <mxPoint x="530" y="370" as="sourcePoint" />
            <mxPoint x="570" y="370" as="targetPoint" />
          </mxGeometry>
        </mxCell>
        <mxCell id="JDbpLK1EYtTzxkzlDI9f-20" value="1" style="edgeLabel;html=1;align=center;verticalAlign=middle;resizable=0;points=[];" vertex="1" connectable="0" parent="JDbpLK1EYtTzxkzlDI9f-19">
          <mxGeometry x="-0.82" relative="1" as="geometry">
            <mxPoint y="-10" as="offset" />
          </mxGeometry>
        </mxCell>
        <mxCell id="JDbpLK1EYtTzxkzlDI9f-21" value="1" style="edgeLabel;html=1;align=center;verticalAlign=middle;resizable=0;points=[];" vertex="1" connectable="0" parent="JDbpLK1EYtTzxkzlDI9f-19">
          <mxGeometry x="0.72" y="-1" relative="1" as="geometry">
            <mxPoint y="-11" as="offset" />
          </mxGeometry>
        </mxCell>
        <mxCell id="JDbpLK1EYtTzxkzlDI9f-26" style="edgeStyle=orthogonalEdgeStyle;rounded=0;orthogonalLoop=1;jettySize=auto;html=1;exitX=1;exitY=0.5;exitDx=0;exitDy=0;entryX=0;entryY=0.5;entryDx=0;entryDy=0;endArrow=none;endFill=0;" edge="1" parent="1" source="XjBraubrFi25nvNVcW7s-2" target="JDbpLK1EYtTzxkzlDI9f-17">
          <mxGeometry relative="1" as="geometry">
            <mxPoint x="250" y="380" as="sourcePoint" />
            <mxPoint x="325" y="380" as="targetPoint" />
          </mxGeometry>
        </mxCell>
        <mxCell id="JDbpLK1EYtTzxkzlDI9f-27" value="1" style="edgeLabel;html=1;align=center;verticalAlign=middle;resizable=0;points=[];" vertex="1" connectable="0" parent="JDbpLK1EYtTzxkzlDI9f-26">
          <mxGeometry x="-0.82" relative="1" as="geometry">
            <mxPoint y="-10" as="offset" />
          </mxGeometry>
        </mxCell>
        <mxCell id="JDbpLK1EYtTzxkzlDI9f-28" value="1" style="edgeLabel;html=1;align=center;verticalAlign=middle;resizable=0;points=[];" vertex="1" connectable="0" parent="JDbpLK1EYtTzxkzlDI9f-26">
          <mxGeometry x="0.72" y="-1" relative="1" as="geometry">
            <mxPoint y="-11" as="offset" />
          </mxGeometry>
        </mxCell>
        <object label="&lt;font color=&quot;#ffffff&quot;&gt;&amp;lt;%type%&amp;gt;&lt;br&gt;%name%&lt;br&gt;%createAt%&lt;br&gt;%expireAt%&lt;br&gt;&lt;/font&gt;" placeholders="1" type="Fulfilment" name="Complain Account Request" createAt="create_at" expireAt="expire_at" id="JDbpLK1EYtTzxkzlDI9f-29">
          <mxCell style="rounded=1;whiteSpace=wrap;html=1;fillColor=#FF66B3;noLabel=0;comic=0;recursiveResize=1;" vertex="1" parent="1">
            <mxGeometry x="310" y="430" width="170" height="100" as="geometry" />
          </mxCell>
        </object>
        <object label="&lt;font color=&quot;#ffffff&quot;&gt;&amp;lt;%type%&amp;gt;&lt;br&gt;%name%&lt;br&gt;%createAt%&lt;br&gt;&lt;/font&gt;" placeholders="1" type="Fulfilment" name="Complain Account Confirmation" createAt="create_at" id="JDbpLK1EYtTzxkzlDI9f-30">
          <mxCell style="rounded=1;whiteSpace=wrap;html=1;fillColor=#FF66B3;noLabel=0;comic=0;recursiveResize=1;" vertex="1" parent="1">
            <mxGeometry x="555" y="430" width="170" height="100" as="geometry" />
          </mxCell>
        </object>
        <mxCell id="JDbpLK1EYtTzxkzlDI9f-31" style="edgeStyle=orthogonalEdgeStyle;rounded=0;orthogonalLoop=1;jettySize=auto;html=1;exitX=1;exitY=0.5;exitDx=0;exitDy=0;endArrow=none;endFill=0;entryX=0;entryY=0.5;entryDx=0;entryDy=0;" edge="1" parent="1" source="JDbpLK1EYtTzxkzlDI9f-29" target="JDbpLK1EYtTzxkzlDI9f-30">
          <mxGeometry relative="1" as="geometry">
            <mxPoint x="535" y="490" as="sourcePoint" />
            <mxPoint x="575" y="490" as="targetPoint" />
          </mxGeometry>
        </mxCell>
        <mxCell id="JDbpLK1EYtTzxkzlDI9f-32" value="1" style="edgeLabel;html=1;align=center;verticalAlign=middle;resizable=0;points=[];" vertex="1" connectable="0" parent="JDbpLK1EYtTzxkzlDI9f-31">
          <mxGeometry x="-0.82" relative="1" as="geometry">
            <mxPoint y="-10" as="offset" />
          </mxGeometry>
        </mxCell>
        <mxCell id="JDbpLK1EYtTzxkzlDI9f-33" value="1" style="edgeLabel;html=1;align=center;verticalAlign=middle;resizable=0;points=[];" vertex="1" connectable="0" parent="JDbpLK1EYtTzxkzlDI9f-31">
          <mxGeometry x="0.72" y="-1" relative="1" as="geometry">
            <mxPoint y="-11" as="offset" />
          </mxGeometry>
        </mxCell>
        <object label="&lt;font color=&quot;#ffffff&quot;&gt;&amp;lt;%type%&amp;gt;&lt;br&gt;%name%&lt;br&gt;%createAt%&lt;br&gt;%expireAt%&lt;br&gt;&lt;/font&gt;" placeholders="1" type="Fulfilment" name="Report Content Request" createAt="create_at" expireAt="expire_at" id="JDbpLK1EYtTzxkzlDI9f-37">
          <mxCell style="rounded=1;whiteSpace=wrap;html=1;fillColor=#FF66B3;noLabel=0;comic=0;recursiveResize=1;" vertex="1" parent="1">
            <mxGeometry x="305" y="670" width="170" height="100" as="geometry" />
          </mxCell>
        </object>
        <object label="&lt;font color=&quot;#ffffff&quot;&gt;&amp;lt;%type%&amp;gt;&lt;br&gt;%name%&lt;br&gt;%createAt%&lt;br&gt;&lt;/font&gt;" placeholders="1" type="Fulfilment" name="Report Content Confirmation" createAt="create_at" id="JDbpLK1EYtTzxkzlDI9f-38">
          <mxCell style="rounded=1;whiteSpace=wrap;html=1;fillColor=#FF66B3;noLabel=0;comic=0;recursiveResize=1;" vertex="1" parent="1">
            <mxGeometry x="550" y="670" width="170" height="100" as="geometry" />
          </mxCell>
        </object>
        <mxCell id="JDbpLK1EYtTzxkzlDI9f-39" style="edgeStyle=orthogonalEdgeStyle;rounded=0;orthogonalLoop=1;jettySize=auto;html=1;exitX=1;exitY=0.5;exitDx=0;exitDy=0;endArrow=none;endFill=0;entryX=0;entryY=0.5;entryDx=0;entryDy=0;" edge="1" parent="1" source="JDbpLK1EYtTzxkzlDI9f-37" target="JDbpLK1EYtTzxkzlDI9f-38">
          <mxGeometry relative="1" as="geometry">
            <mxPoint x="530" y="730" as="sourcePoint" />
            <mxPoint x="570" y="730" as="targetPoint" />
          </mxGeometry>
        </mxCell>
        <mxCell id="JDbpLK1EYtTzxkzlDI9f-40" value="1" style="edgeLabel;html=1;align=center;verticalAlign=middle;resizable=0;points=[];" vertex="1" connectable="0" parent="JDbpLK1EYtTzxkzlDI9f-39">
          <mxGeometry x="-0.82" relative="1" as="geometry">
            <mxPoint y="-10" as="offset" />
          </mxGeometry>
        </mxCell>
        <mxCell id="JDbpLK1EYtTzxkzlDI9f-41" value="1" style="edgeLabel;html=1;align=center;verticalAlign=middle;resizable=0;points=[];" vertex="1" connectable="0" parent="JDbpLK1EYtTzxkzlDI9f-39">
          <mxGeometry x="0.72" y="-1" relative="1" as="geometry">
            <mxPoint y="-11" as="offset" />
          </mxGeometry>
        </mxCell>
        <mxCell id="JDbpLK1EYtTzxkzlDI9f-45" style="edgeStyle=orthogonalEdgeStyle;rounded=0;orthogonalLoop=1;jettySize=auto;html=1;exitX=0.75;exitY=1;exitDx=0;exitDy=0;entryX=0;entryY=0.5;entryDx=0;entryDy=0;endArrow=none;endFill=0;" edge="1" parent="1" source="XjBraubrFi25nvNVcW7s-2" target="JDbpLK1EYtTzxkzlDI9f-29">
          <mxGeometry relative="1" as="geometry">
            <mxPoint x="155" y="420" as="sourcePoint" />
            <mxPoint x="315" y="490" as="targetPoint" />
          </mxGeometry>
        </mxCell>
        <mxCell id="JDbpLK1EYtTzxkzlDI9f-46" value="1" style="edgeLabel;html=1;align=center;verticalAlign=middle;resizable=0;points=[];" vertex="1" connectable="0" parent="JDbpLK1EYtTzxkzlDI9f-45">
          <mxGeometry x="-0.82" relative="1" as="geometry">
            <mxPoint y="-10" as="offset" />
          </mxGeometry>
        </mxCell>
        <mxCell id="JDbpLK1EYtTzxkzlDI9f-47" value="1" style="edgeLabel;html=1;align=center;verticalAlign=middle;resizable=0;points=[];" vertex="1" connectable="0" parent="JDbpLK1EYtTzxkzlDI9f-45">
          <mxGeometry x="0.72" y="-1" relative="1" as="geometry">
            <mxPoint y="-11" as="offset" />
          </mxGeometry>
        </mxCell>
        <mxCell id="JDbpLK1EYtTzxkzlDI9f-48" style="edgeStyle=orthogonalEdgeStyle;rounded=0;orthogonalLoop=1;jettySize=auto;html=1;exitX=0.329;exitY=1.01;exitDx=0;exitDy=0;entryX=0;entryY=0.5;entryDx=0;entryDy=0;endArrow=none;endFill=0;exitPerimeter=0;" edge="1" parent="1" source="XjBraubrFi25nvNVcW7s-2" target="JDbpLK1EYtTzxkzlDI9f-37">
          <mxGeometry relative="1" as="geometry">
            <mxPoint x="165" y="430" as="sourcePoint" />
            <mxPoint x="325" y="500" as="targetPoint" />
          </mxGeometry>
        </mxCell>
        <mxCell id="JDbpLK1EYtTzxkzlDI9f-49" value="1" style="edgeLabel;html=1;align=center;verticalAlign=middle;resizable=0;points=[];" vertex="1" connectable="0" parent="JDbpLK1EYtTzxkzlDI9f-48">
          <mxGeometry x="-0.82" relative="1" as="geometry">
            <mxPoint y="-10" as="offset" />
          </mxGeometry>
        </mxCell>
        <mxCell id="JDbpLK1EYtTzxkzlDI9f-50" value="1" style="edgeLabel;html=1;align=center;verticalAlign=middle;resizable=0;points=[];" vertex="1" connectable="0" parent="JDbpLK1EYtTzxkzlDI9f-48">
          <mxGeometry x="0.72" y="-1" relative="1" as="geometry">
            <mxPoint y="-11" as="offset" />
          </mxGeometry>
        </mxCell>
        <object label="&lt;font color=&quot;#ffffff&quot;&gt;&amp;lt;%type%&amp;gt;&lt;br&gt;%name%&lt;br&gt;%createAt%&lt;br&gt;%expireAt%&lt;br&gt;&lt;/font&gt;" placeholders="1" type="Fulfilment" name="Maintain Content Request" createAt="create_at" expireAt="expire_at" id="JDbpLK1EYtTzxkzlDI9f-51">
          <mxCell style="rounded=1;whiteSpace=wrap;html=1;fillColor=#FF66B3;noLabel=0;comic=0;recursiveResize=1;" vertex="1" parent="1">
            <mxGeometry x="310" y="550" width="170" height="100" as="geometry" />
          </mxCell>
        </object>
        <object label="&lt;font color=&quot;#ffffff&quot;&gt;&amp;lt;%type%&amp;gt;&lt;br&gt;%name%&lt;br&gt;%createAt%&lt;br&gt;&lt;/font&gt;" placeholders="1" type="Fulfilment" name="Maintain Content Confirmation" createAt="create_at" id="JDbpLK1EYtTzxkzlDI9f-52">
          <mxCell style="rounded=1;whiteSpace=wrap;html=1;fillColor=#FF66B3;noLabel=0;comic=0;recursiveResize=1;" vertex="1" parent="1">
            <mxGeometry x="555" y="550" width="170" height="100" as="geometry" />
          </mxCell>
        </object>
        <mxCell id="JDbpLK1EYtTzxkzlDI9f-53" style="edgeStyle=orthogonalEdgeStyle;rounded=0;orthogonalLoop=1;jettySize=auto;html=1;exitX=1;exitY=0.5;exitDx=0;exitDy=0;endArrow=none;endFill=0;entryX=0;entryY=0.5;entryDx=0;entryDy=0;" edge="1" parent="1" source="JDbpLK1EYtTzxkzlDI9f-51" target="JDbpLK1EYtTzxkzlDI9f-52">
          <mxGeometry relative="1" as="geometry">
            <mxPoint x="535" y="610" as="sourcePoint" />
            <mxPoint x="575" y="610" as="targetPoint" />
          </mxGeometry>
        </mxCell>
        <mxCell id="JDbpLK1EYtTzxkzlDI9f-54" value="1" style="edgeLabel;html=1;align=center;verticalAlign=middle;resizable=0;points=[];" vertex="1" connectable="0" parent="JDbpLK1EYtTzxkzlDI9f-53">
          <mxGeometry x="-0.82" relative="1" as="geometry">
            <mxPoint y="-10" as="offset" />
          </mxGeometry>
        </mxCell>
        <mxCell id="JDbpLK1EYtTzxkzlDI9f-55" value="1" style="edgeLabel;html=1;align=center;verticalAlign=middle;resizable=0;points=[];" vertex="1" connectable="0" parent="JDbpLK1EYtTzxkzlDI9f-53">
          <mxGeometry x="0.72" y="-1" relative="1" as="geometry">
            <mxPoint y="-11" as="offset" />
          </mxGeometry>
        </mxCell>
        <mxCell id="JDbpLK1EYtTzxkzlDI9f-56" style="edgeStyle=orthogonalEdgeStyle;rounded=0;orthogonalLoop=1;jettySize=auto;html=1;exitX=0.571;exitY=1;exitDx=0;exitDy=0;endArrow=none;endFill=0;entryX=0;entryY=0.5;entryDx=0;entryDy=0;exitPerimeter=0;" edge="1" parent="1" source="XjBraubrFi25nvNVcW7s-2" target="JDbpLK1EYtTzxkzlDI9f-51">
          <mxGeometry relative="1" as="geometry">
            <mxPoint x="112.5" y="420" as="sourcePoint" />
            <mxPoint x="315" y="730" as="targetPoint" />
          </mxGeometry>
        </mxCell>
        <mxCell id="JDbpLK1EYtTzxkzlDI9f-57" value="1" style="edgeLabel;html=1;align=center;verticalAlign=middle;resizable=0;points=[];" vertex="1" connectable="0" parent="JDbpLK1EYtTzxkzlDI9f-56">
          <mxGeometry x="-0.82" relative="1" as="geometry">
            <mxPoint y="-10" as="offset" />
          </mxGeometry>
        </mxCell>
        <mxCell id="JDbpLK1EYtTzxkzlDI9f-58" value="1" style="edgeLabel;html=1;align=center;verticalAlign=middle;resizable=0;points=[];" vertex="1" connectable="0" parent="JDbpLK1EYtTzxkzlDI9f-56">
          <mxGeometry x="0.72" y="-1" relative="1" as="geometry">
            <mxPoint y="-11" as="offset" />
          </mxGeometry>
        </mxCell>
        <object label="&lt;font color=&quot;#ffffff&quot;&gt;&amp;lt;%type%&amp;gt;&lt;br&gt;%name%&lt;br&gt;%createAt%&lt;br&gt;%expireAt%&lt;br&gt;&lt;/font&gt;" placeholders="1" type="Fulfilment" name="Drop Content Request" createAt="create_at" expireAt="expire_at" id="JDbpLK1EYtTzxkzlDI9f-59">
          <mxCell style="rounded=1;whiteSpace=wrap;html=1;fillColor=#FF66B3;noLabel=0;comic=0;recursiveResize=1;" vertex="1" parent="1">
            <mxGeometry x="305" y="790" width="170" height="100" as="geometry" />
          </mxCell>
        </object>
        <object label="&lt;font color=&quot;#ffffff&quot;&gt;&amp;lt;%type%&amp;gt;&lt;br&gt;%name%&lt;br&gt;%createAt%&lt;br&gt;&lt;/font&gt;" placeholders="1" type="Fulfilment" name="Drop Content Confirmation" createAt="create_at" id="JDbpLK1EYtTzxkzlDI9f-60">
          <mxCell style="rounded=1;whiteSpace=wrap;html=1;fillColor=#FF66B3;noLabel=0;comic=0;recursiveResize=1;" vertex="1" parent="1">
            <mxGeometry x="550" y="790" width="170" height="100" as="geometry" />
          </mxCell>
        </object>
        <mxCell id="JDbpLK1EYtTzxkzlDI9f-61" style="edgeStyle=orthogonalEdgeStyle;rounded=0;orthogonalLoop=1;jettySize=auto;html=1;exitX=1;exitY=0.5;exitDx=0;exitDy=0;endArrow=none;endFill=0;entryX=0;entryY=0.5;entryDx=0;entryDy=0;" edge="1" parent="1" source="JDbpLK1EYtTzxkzlDI9f-59" target="JDbpLK1EYtTzxkzlDI9f-60">
          <mxGeometry relative="1" as="geometry">
            <mxPoint x="535" y="850" as="sourcePoint" />
            <mxPoint x="575" y="850" as="targetPoint" />
          </mxGeometry>
        </mxCell>
        <mxCell id="JDbpLK1EYtTzxkzlDI9f-62" value="1" style="edgeLabel;html=1;align=center;verticalAlign=middle;resizable=0;points=[];" vertex="1" connectable="0" parent="JDbpLK1EYtTzxkzlDI9f-61">
          <mxGeometry x="-0.82" relative="1" as="geometry">
            <mxPoint y="-10" as="offset" />
          </mxGeometry>
        </mxCell>
        <mxCell id="JDbpLK1EYtTzxkzlDI9f-63" value="1" style="edgeLabel;html=1;align=center;verticalAlign=middle;resizable=0;points=[];" vertex="1" connectable="0" parent="JDbpLK1EYtTzxkzlDI9f-61">
          <mxGeometry x="0.72" y="-1" relative="1" as="geometry">
            <mxPoint y="-11" as="offset" />
          </mxGeometry>
        </mxCell>
        <mxCell id="JDbpLK1EYtTzxkzlDI9f-64" style="edgeStyle=orthogonalEdgeStyle;rounded=0;orthogonalLoop=1;jettySize=auto;html=1;exitX=0.124;exitY=0.99;exitDx=0;exitDy=0;entryX=0;entryY=0.5;entryDx=0;entryDy=0;endArrow=none;endFill=0;exitPerimeter=0;" edge="1" parent="1" source="XjBraubrFi25nvNVcW7s-2" target="JDbpLK1EYtTzxkzlDI9f-59">
          <mxGeometry relative="1" as="geometry">
            <mxPoint x="112.5" y="420" as="sourcePoint" />
            <mxPoint x="315" y="730" as="targetPoint" />
          </mxGeometry>
        </mxCell>
        <mxCell id="JDbpLK1EYtTzxkzlDI9f-65" value="1" style="edgeLabel;html=1;align=center;verticalAlign=middle;resizable=0;points=[];" vertex="1" connectable="0" parent="JDbpLK1EYtTzxkzlDI9f-64">
          <mxGeometry x="-0.82" relative="1" as="geometry">
            <mxPoint y="-10" as="offset" />
          </mxGeometry>
        </mxCell>
        <mxCell id="JDbpLK1EYtTzxkzlDI9f-66" value="1" style="edgeLabel;html=1;align=center;verticalAlign=middle;resizable=0;points=[];" vertex="1" connectable="0" parent="JDbpLK1EYtTzxkzlDI9f-64">
          <mxGeometry x="0.72" y="-1" relative="1" as="geometry">
            <mxPoint y="-11" as="offset" />
          </mxGeometry>
        </mxCell>
      </root>
    </mxGraphModel>
  </diagram>
</mxfile>
